<?xml version="1.0" standalone="no"?><!DOCTYPE svg PUBLIC "-//W3C//DTD SVG 1.1//EN" "http://www.w3.org/Graphics/SVG/1.1/DTD/svg11.dtd"><svg t="1765269590346" class="icon" viewBox="0 0 1024 1024" version="1.1" xmlns="http://www.w3.org/2000/svg" p-id="2649" xmlns:xlink="http://www.w3.org/1999/xlink" width="200" height="200"><path d="M116.736 282.624c8.192 0 16.384 3.072 22.528 9.216l372.736 372.736L884.736 291.84c6.144-6.144 13.824-9.216 22.528-9.216 8.192 0 16.384 3.072 22.528 9.216 12.288 12.288 12.288 32.256 0 44.544L534.528 732.16c-6.144 6.144-13.824 9.216-22.528 9.216-8.192 0-16.384-3.072-22.528-9.216L94.208 336.896c-12.288-12.288-12.288-32.256 0-44.544 6.144-6.144 14.336-9.728 22.528-9.728z" fill="#707070" p-id="2650"></path></svg>